<svg xmlns="http://www.w3.org/2000/svg" width="182.375" height="83.648" viewBox="0 0 182.375 83.648">
  <g id="Group_49" data-name="Group 49" transform="translate(-87.002 -333.892)">
    <path id="Path_2" data-name="Path 2" d="M-1247.556,118.04h-15.165l-5.331-7.816a39.4,39.4,0,0,1-13.044,2.07c-10.893,0-19.994-3.568-26.319-10.319a33.8,33.8,0,0,1-7.191-12.149,49.217,49.217,0,0,1-2.514-16.142,46.468,46.468,0,0,1,3.5-18.532A18.382,18.382,0,0,0-1303,58.5a18.509,18.509,0,0,0,5.441-.813,27.466,27.466,0,0,0-2.685,7.2,39.618,39.618,0,0,0-.932,8.8c0,7.675,1.881,14.14,5.441,18.7a17.916,17.916,0,0,0,14.641,6.974,19.435,19.435,0,0,0,5.332-.725l-8.178-12.215h14.13l3.261,4.451a20.924,20.924,0,0,0,4.063-7.407,31.9,31.9,0,0,0,1.423-9.775c0-7.7-1.879-14.19-5.435-18.769a17.824,17.824,0,0,0-14.6-7.007,19.878,19.878,0,0,0-5.559.764A18.535,18.535,0,0,0-1284.5,40V35.51c1.115-.079,2.261-.118,3.4-.118,10.87,0,19.955,3.54,26.274,10.237a33.5,33.5,0,0,1,7.185,12.049,48.449,48.449,0,0,1,2.513,16.006,47.645,47.645,0,0,1-3.06,17.578,30.442,30.442,0,0,1-8.844,12.493l9.471,14.284Z" transform="translate(1514 299)" fill="#fff" stroke="rgba(0,0,0,0)" stroke-linecap="round" stroke-width="1"/>
    <path id="Path_3" data-name="Path 3" d="M30.537-46.686c6.987,0,11.853,4.865,12.111,12.318H18.063C18.581-41.665,23.653-46.686,30.537-46.686ZM42.855-17.391C41.406-12.991,36.9-10.3,31.21-10.3c-7.971,0-13.3-5.538-13.3-13.768V-25H57.244v-4.658c0-17.339-10.455-28.312-26.862-28.312C13.664-57.969,3-46.375,3-28.26S13.612.983,30.951.983c13.871,0,24.171-7.35,25.827-18.374ZM60.07,0H75.183V-32.5c0-7.557,4.348-12.732,11.594-12.732,7.143,0,10.662,4.3,10.662,11.853V0h15.113V-36.541c0-13.3-7.143-21.272-19.771-21.272-8.747,0-14.544,3.83-17.8,11.024h-.311v-10.2H60.07Z" transform="translate(84 406)" fill="#fff"/>
  </g>
</svg>
